<svg width="16" height="16" viewBox="0 0 16 16" fill="none" xmlns="http://www.w3.org/2000/svg">
<path d="M8.00008 15.5C6.86612 15.5032 5.74649 15.2466 4.72707 14.75C4.35399 14.5685 3.99652 14.3566 3.65832 14.1163L3.55557 14.0413C2.62544 13.3547 1.86498 12.4642 1.33257 11.438C0.781877 10.3759 0.496255 9.19637 0.500037 8C0.500037 3.85786 3.85794 0.5 8.00008 0.5C12.1422 0.5 15.5001 3.85786 15.5001 8C15.5039 9.19579 15.2185 10.3748 14.6683 11.4365C14.1367 12.4621 13.3773 13.3523 12.4483 14.039C12.0979 14.2955 11.726 14.5213 11.3368 14.714L11.2768 14.744C10.2568 15.2433 9.13577 15.5019 8.00008 15.5ZM8.00008 11.75C6.87618 11.7478 5.84582 12.3755 5.33232 13.3752C7.01337 14.2079 8.98678 14.2079 10.6678 13.3752V13.3715C10.1537 12.3729 9.12329 11.7466 8.00008 11.75ZM8.00008 10.25C9.62466 10.2521 11.1226 11.1276 11.9218 12.542L11.9331 12.5322L11.9436 12.5233L11.9308 12.5345L11.9233 12.5405C13.8201 10.9018 14.4983 8.25675 13.6241 5.90758C12.7498 3.55841 10.5074 2.00024 8.00083 2.00024C5.49426 2.00024 3.25182 3.55841 2.37759 5.90758C1.50336 8.25675 2.18158 10.9018 4.07832 12.5405C4.87802 11.1268 6.37585 10.252 8.00008 10.25ZM8.00008 9.5C6.34322 9.5 5.00007 8.15685 5.00007 6.5C5.00007 4.84315 6.34322 3.5 8.00008 3.5C9.65693 3.5 11.0001 4.84315 11.0001 6.5C11.0001 7.29565 10.684 8.05871 10.1214 8.62132C9.55879 9.18393 8.79572 9.5 8.00008 9.5ZM8.00008 5C7.17165 5 6.50008 5.67157 6.50008 6.5C6.50008 7.32843 7.17165 8 8.00008 8C8.8285 8 9.50008 7.32843 9.50008 6.5C9.50008 5.67157 8.8285 5 8.00008 5Z" fill="white"/>
</svg>
