<svg width="18" height="18" viewBox="0 0 18 18" fill="none" xmlns="http://www.w3.org/2000/svg">
<path d="M15 15H3C2.19789 15.024 1.52731 14.395 1.5 13.593V4.40621C1.52731 3.60431 2.19801 2.97553 3 2.99996H15C15.802 2.97553 16.4727 3.60431 16.5 4.40621V13.5937C16.4723 14.3954 15.8018 15.024 15 15ZM3 4.49996V13.4917L15 13.5V4.50821L3 4.49996ZM10.0725 12H4.5C4.55514 11.379 4.84901 10.8036 5.31975 10.395C5.84387 9.87499 6.54811 9.57686 7.28625 9.56246C8.02439 9.57686 8.72863 9.87499 9.25275 10.395C9.72337 10.8037 10.0172 11.379 10.0725 12ZM13.5 11.25H11.25V9.74996H13.5V11.25ZM7.28625 8.99996C6.88431 9.01392 6.49461 8.86038 6.21022 8.57599C5.92583 8.2916 5.77228 7.9019 5.78625 7.49996C5.77251 7.09808 5.92613 6.70851 6.21046 6.42417C6.4948 6.13983 6.88437 5.98621 7.28625 5.99996C7.68813 5.98621 8.0777 6.13983 8.36204 6.42417C8.64637 6.70851 8.79999 7.09808 8.78625 7.49996C8.80022 7.9019 8.64667 8.2916 8.36228 8.57599C8.07789 8.86038 7.68819 9.01392 7.28625 8.99996ZM13.5 8.24996H10.5V6.74996H13.5V8.24996Z" fill="black"/>
</svg>
