<svg width="16" height="14" viewBox="0 0 16 14" fill="none" xmlns="http://www.w3.org/2000/svg">
<path d="M5.75 0.25C3.67893 0.25 2 1.92893 2 4C2 6.07107 3.67893 7.75 5.75 7.75C7.82107 7.75 9.5 6.07107 9.5 4C9.5 1.92893 7.82107 0.25 5.75 0.25ZM3.5 4C3.5 2.75736 4.50736 1.75 5.75 1.75C6.99264 1.75 8 2.75736 8 4C8 5.24264 6.99264 6.25 5.75 6.25C4.50736 6.25 3.5 5.24264 3.5 4Z" fill="black"/>
<path d="M11.6813 4.16371C11.4703 4.05613 11.2368 4.00005 11 4.00005V2.50005C11.4737 2.50005 11.9407 2.61217 12.3627 2.82734C12.4092 2.85104 12.4549 2.87591 12.5 2.90192C12.864 3.1121 13.1804 3.39677 13.428 3.73792C13.7062 4.12129 13.8897 4.5651 13.9634 5.03303C14.0372 5.50095 13.999 5.97968 13.8522 6.43004C13.7053 6.8804 13.4539 7.28958 13.1185 7.6241C12.7831 7.95861 12.3733 8.20895 11.9226 8.35462C11.5215 8.48425 11.0981 8.52772 10.6802 8.4829C10.6284 8.47736 10.5768 8.47046 10.5253 8.4622C10.0579 8.38729 9.61481 8.20284 9.23234 7.92392L9.23156 7.92335L10.1158 6.71167C10.3071 6.85129 10.5288 6.94358 10.7626 6.98106C10.9965 7.01853 11.2359 7.0001 11.4613 6.92727C11.6866 6.85444 11.8915 6.72927 12.0592 6.56202C12.2269 6.39476 12.3526 6.19018 12.4261 5.96501C12.4995 5.73983 12.5185 5.50047 12.4817 5.26652C12.4448 5.03257 12.3531 4.81067 12.214 4.61898C12.0748 4.4273 11.8923 4.27129 11.6813 4.16371Z" fill="black"/>
<path d="M13.9986 13.75C13.9986 13.3562 13.921 12.9663 13.7703 12.6025C13.6196 12.2387 13.3988 11.9081 13.1203 11.6297C12.8419 11.3512 12.5113 11.1304 12.1475 10.9797C11.7837 10.829 11.3938 10.7514 11 10.7514V9.25C11.5116 9.25 12.0188 9.33722 12.5 9.50736C12.5747 9.53376 12.6487 9.56216 12.7221 9.59254C13.268 9.81869 13.7641 10.1502 14.182 10.568C14.5998 10.9859 14.9313 11.482 15.1575 12.0279C15.1878 12.1013 15.2162 12.1753 15.2426 12.25C15.4128 12.7312 15.5 13.2384 15.5 13.75H13.9986Z" fill="black"/>
<path d="M11 13.75H9.5C9.5 11.6789 7.82107 10 5.75 10C3.67893 10 2 11.6789 2 13.75H0.5C0.5 10.8505 2.85051 8.5 5.75 8.5C8.6495 8.5 11 10.8505 11 13.75Z" fill="black"/>
</svg>
