<svg width="115" height="40" viewBox="0 0 115 40" fill="none" xmlns="http://www.w3.org/2000/svg">
<path fill-rule="evenodd" clip-rule="evenodd" d="M18.9439 5.77701C20.1931 5.77701 21.2053 6.83701 21.2053 8.14201C21.2053 9.45001 20.1922 10.507 18.9439 10.507C17.6956 10.507 16.6834 9.44901 16.6834 8.14201C16.6834 6.83701 17.6966 5.77701 18.9439 5.77701ZM18.9439 1.96301H22.7642C24.4197 1.96301 25.776 3.38201 25.776 5.11401V12.82H33.1404C34.7968 12.82 36.1531 14.237 36.1531 15.972V24.027C36.1531 25.761 34.7968 27.179 33.1404 27.179H25.776V34.884C25.776 36.618 24.4197 38.036 22.7642 38.036H18.9439H17.3296C18.1678 33.13 22.3093 27.968 23.5709 22.865C25.2465 16.088 18.703 10.934 12.1128 8.62901V5.11401C12.1128 3.38201 13.4691 1.96301 15.1255 1.96301H18.9439Z" fill="white"/>
<path fill-rule="evenodd" clip-rule="evenodd" d="M16.4082 38.025H15.1264C13.47 38.025 12.1137 36.607 12.1137 34.873V27.169H4.75024C3.09192 27.169 1.73755 25.751 1.73755 24.016V15.961C1.73755 14.228 3.09192 12.809 4.75024 12.809H12.1137V9.73303C24.1779 15.229 17.5417 29.604 16.4082 38.025Z" fill="white"/>
<path d="M99.5641 30.126H93.6018V8.94295C93.6018 8.74595 93.5493 8.58395 93.4307 8.44095C93.3113 8.32595 93.165 8.26195 92.9767 8.26195H86.7755C86.6034 8.26195 86.4496 8.32495 86.3215 8.44095C86.1858 8.58395 86.1179 8.74595 86.1179 8.94295V30.126H80.1881V8.94295C80.1881 7.03795 80.8304 5.40195 82.1188 4.04395C83.4178 2.70295 84.9738 2.03295 86.7764 2.05095H92.9777C94.2766 2.03295 95.4819 2.40895 96.583 3.17695C97.686 2.40895 98.8903 2.03295 100.214 2.05095H106.298C108.116 2.03295 109.672 2.70295 110.977 4.04395C112.26 5.40195 112.892 7.03795 112.873 8.94295V30.126H106.945V8.94295C106.945 8.74595 106.878 8.58395 106.739 8.44095C106.629 8.32595 106.476 8.26195 106.297 8.26195H100.213C100.026 8.26195 99.8728 8.32495 99.7342 8.44095C99.6148 8.58395 99.5632 8.74595 99.5632 8.94295V30.126H99.5641ZM57.787 8.26295V13.6529H69.7221C69.9104 13.6529 70.0633 13.582 70.2 13.4489C70.3204 13.3219 70.372 13.1709 70.372 12.9729V8.94295C70.372 8.76295 70.3204 8.61095 70.2 8.46795C70.0633 8.32495 69.9104 8.26195 69.7221 8.26195H57.787V8.26295ZM51.8753 2.05095H69.7221C71.5429 2.05095 73.097 2.72995 74.3778 4.07195C75.6767 5.41295 76.3334 7.03895 76.3334 8.94395C76.3181 11.3829 76.3181 12.7329 76.3334 12.9729C76.3334 14.5119 75.8908 15.887 75.0029 17.113C74.1398 18.301 73.0282 19.116 71.6776 19.544L76.3104 30.127H69.4487L64.9889 19.867H57.787V30.127H51.8753V2.05095ZM42 1.99695H47.9107V30.126H42V1.99695Z" fill="white"/>
<path d="M66.8495 34.606C66.1689 34.606 65.8287 35.085 65.8287 36.042C65.8287 36.999 66.1517 37.478 66.7998 37.478C67.1343 37.478 67.3914 37.357 67.5749 37.113C67.7584 36.87 67.8483 36.504 67.8483 36.017C67.8473 35.077 67.5157 34.606 66.8495 34.606ZM65.2542 36.084C65.2542 35.791 65.2915 35.527 65.3651 35.292C65.4406 35.054 65.5496 34.852 65.6929 34.683C65.8344 34.514 66.0074 34.386 66.2033 34.296C66.4012 34.208 66.622 34.163 66.8648 34.163C67.1075 34.163 67.3255 34.206 67.5176 34.292C67.7106 34.376 67.875 34.499 68.0098 34.659C68.1446 34.818 68.2468 35.013 68.3166 35.239C68.3864 35.465 68.4208 35.719 68.4208 36.001C68.4208 36.283 68.3807 36.54 68.3013 36.775C68.221 37.009 68.1083 37.211 67.9639 37.381C67.8206 37.55 67.6456 37.681 67.4421 37.777C67.2404 37.872 67.0158 37.92 66.7692 37.92C66.2808 37.92 65.907 37.761 65.6432 37.446C65.3842 37.129 65.2542 36.675 65.2542 36.084ZM64.4561 37.556V37.869H62.9345V37.556L63.4325 37.452V34.634H62.7854L62.6602 35.155H62.3371V34.217H65.0554V35.155H64.7314L64.6072 34.634H63.9563V37.452L64.4561 37.556ZM61.5639 34.633V36.382C61.5639 36.893 61.4607 37.277 61.2552 37.533C61.0487 37.792 60.6998 37.921 60.2114 37.921C59.7221 37.921 59.377 37.801 59.1734 37.565C58.9708 37.326 58.8704 36.958 58.8704 36.461V34.634L58.4451 34.53V34.242L59.8673 34.217V34.53L59.3942 34.634V36.461C59.3942 36.844 59.4563 37.107 59.5835 37.257C59.7096 37.404 59.9237 37.479 60.2258 37.479C60.5288 37.479 60.7409 37.398 60.8595 37.236C60.9799 37.075 61.0392 36.791 61.0392 36.383V34.634L60.5651 34.53V34.242L61.9873 34.217V34.53L61.5639 34.633ZM57.4979 37.556V37.869H55.9772V37.556L56.4752 37.452V34.634H55.8281L55.701 35.155H55.3779V34.217H58.0972V35.155H57.7713L57.648 34.634H56.999V37.452L57.4979 37.556ZM54.9784 37.556V37.869H53.6068V37.556L54.0293 37.452V34.634L53.6068 34.53V34.242L54.9784 34.217V34.53L54.554 34.634V37.452L54.9784 37.556ZM52.6099 37.556V37.869H51.0883V37.556L51.5863 37.452V34.634H50.9382L50.813 35.155H50.4881V34.217H53.2083V35.155H52.8823L52.7581 34.634H52.1091V37.452L52.6099 37.556ZM48.2075 36.799L48.306 37.347C48.3662 37.383 48.4465 37.412 48.5497 37.438C48.652 37.464 48.7561 37.478 48.8546 37.478C48.954 37.478 49.0515 37.464 49.1432 37.438C49.2379 37.413 49.3191 37.375 49.3898 37.327C49.4567 37.277 49.5141 37.22 49.5562 37.152C49.5963 37.084 49.6173 37.007 49.6173 36.92C49.6173 36.819 49.5915 36.734 49.5389 36.666C49.4835 36.598 49.4156 36.54 49.3306 36.489C49.2455 36.438 49.1499 36.394 49.0429 36.355C48.9377 36.318 48.8288 36.277 48.7198 36.235C48.6023 36.183 48.4904 36.131 48.3824 36.077C48.2744 36.022 48.1769 35.957 48.0938 35.88C48.0078 35.801 47.9408 35.706 47.8911 35.594C47.8405 35.484 47.8166 35.346 47.8166 35.182C47.8166 35.008 47.8491 34.857 47.9141 34.728C47.9772 34.599 48.0651 34.494 48.1731 34.411C48.2811 34.326 48.4073 34.265 48.5535 34.224C48.6959 34.185 48.8489 34.164 49.0075 34.164C49.0811 34.164 49.1595 34.17 49.2436 34.18C49.3258 34.191 49.408 34.203 49.4883 34.219C49.5667 34.236 49.6412 34.253 49.7119 34.272C49.7817 34.291 49.8419 34.307 49.8916 34.322L50.0513 34.375L50.0274 35.261H49.7014L49.5303 34.7C49.4386 34.67 49.3468 34.646 49.2551 34.633C49.1643 34.619 49.0687 34.612 48.9741 34.612C48.8775 34.612 48.7886 34.627 48.7122 34.652C48.6328 34.678 48.5679 34.714 48.5124 34.759C48.457 34.803 48.4149 34.854 48.3853 34.909C48.3557 34.964 48.3404 35.023 48.3404 35.081C48.3432 35.228 48.3901 35.343 48.4799 35.427C48.5698 35.51 48.6825 35.581 48.8135 35.642C48.9473 35.7 49.0916 35.755 49.2455 35.807C49.4004 35.86 49.5437 35.924 49.6737 36.003C49.8056 36.081 49.9146 36.183 50.0025 36.309C50.0924 36.433 50.1373 36.597 50.1373 36.799C50.1373 36.981 50.1029 37.141 50.0379 37.279C49.9719 37.418 49.8792 37.534 49.7626 37.632C49.646 37.728 49.5074 37.8 49.3478 37.851C49.1891 37.902 49.0171 37.926 48.8345 37.926C48.7619 37.926 48.6835 37.921 48.5975 37.909C48.5134 37.901 48.4293 37.887 48.349 37.871C48.2658 37.855 48.1903 37.838 48.1224 37.819C48.0517 37.799 47.9934 37.781 47.9456 37.764L47.8061 37.711V36.798H48.2075V36.799ZM46.4345 37.868L44.7877 34.993V37.451L45.2608 37.555V37.868H43.916V37.555L44.3384 37.451V34.633L43.916 34.529V34.241L44.9635 34.216L46.6104 37.132V34.633L46.186 34.529V34.241L47.4821 34.216V34.529L47.0577 34.633V37.868H46.4345ZM43.4792 37.517V37.869H41.9355V37.517L42.4134 37.4V34.229L41.9355 34.111V33.789L43.4792 33.76V34.112L43.0003 34.23V37.401L43.4792 37.517Z" fill="white"/>
<path d="M111.03 36.746L111.129 37.294C111.188 37.33 111.27 37.359 111.373 37.386C111.476 37.413 111.578 37.426 111.677 37.426C111.775 37.426 111.873 37.412 111.966 37.386C112.06 37.36 112.141 37.322 112.211 37.274C112.279 37.225 112.336 37.168 112.378 37.1C112.419 37.033 112.44 36.954 112.44 36.867C112.44 36.766 112.413 36.683 112.36 36.613C112.308 36.546 112.239 36.487 112.152 36.437C112.068 36.387 111.972 36.341 111.867 36.302C111.759 36.267 111.652 36.224 111.541 36.183C111.425 36.131 111.313 36.078 111.205 36.024C111.097 35.97 110.999 35.904 110.914 35.827C110.831 35.749 110.762 35.653 110.712 35.542C110.662 35.431 110.639 35.294 110.639 35.129C110.639 34.956 110.67 34.804 110.735 34.675C110.8 34.547 110.887 34.441 110.994 34.359C111.103 34.274 111.23 34.213 111.373 34.172C111.517 34.132 111.67 34.112 111.831 34.112C111.904 34.112 111.981 34.117 112.064 34.127C112.149 34.139 112.229 34.151 112.309 34.166C112.39 34.183 112.464 34.201 112.533 34.219C112.602 34.238 112.663 34.255 112.713 34.269L112.872 34.322L112.848 35.208H112.525L112.355 34.651C112.26 34.619 112.168 34.597 112.076 34.584C111.986 34.568 111.893 34.562 111.795 34.562C111.7 34.562 111.613 34.575 111.534 34.601C111.457 34.628 111.39 34.663 111.334 34.709C111.279 34.753 111.236 34.804 111.207 34.859C111.178 34.915 111.162 34.972 111.162 35.031C111.166 35.178 111.211 35.294 111.301 35.376C111.392 35.459 111.504 35.53 111.638 35.59C111.771 35.649 111.914 35.704 112.068 35.757C112.222 35.809 112.366 35.874 112.497 35.952C112.628 36.03 112.739 36.133 112.827 36.259C112.915 36.384 112.959 36.546 112.959 36.748C112.959 36.931 112.928 37.09 112.859 37.228C112.794 37.368 112.702 37.485 112.586 37.581C112.47 37.677 112.331 37.75 112.169 37.801C112.011 37.852 111.838 37.876 111.657 37.876C111.583 37.876 111.505 37.87 111.422 37.86C111.335 37.849 111.252 37.837 111.17 37.821C111.089 37.805 111.014 37.788 110.944 37.768C110.874 37.749 110.815 37.731 110.77 37.713L110.629 37.661V36.747H111.03V36.746ZM110.085 34.582V36.328C110.085 36.842 109.982 37.224 109.777 37.481C109.569 37.74 109.223 37.868 108.734 37.868C108.245 37.868 107.899 37.751 107.696 37.512C107.493 37.274 107.392 36.906 107.392 36.408V34.582L106.968 34.477V34.19L108.39 34.164V34.477L107.917 34.582V36.408C107.917 36.79 107.979 37.054 108.105 37.204C108.232 37.351 108.445 37.426 108.748 37.426C109.051 37.426 109.263 37.345 109.382 37.182C109.501 37.021 109.562 36.737 109.562 36.328V34.582L109.088 34.477V34.19L110.51 34.164V34.477L110.085 34.582ZM106.197 34.582H105.125V35.702H106.272V36.12H105.125V37.399H106.272L106.371 36.878H106.697V37.817H104.178V37.503L104.601 37.399V34.582L104.178 34.477V34.19L105.125 34.164H106.647V35.052H106.322L106.197 34.582ZM103.259 37.503V37.817H101.738V37.503L102.236 37.399V34.582H101.586L101.461 35.102H101.137V34.164H103.857V35.102H103.533L103.408 34.582H102.757V37.399L103.259 37.503ZM99.6806 34.838L99.1568 36.408H100.183L99.6806 34.838ZM97.9258 37.817V37.5L98.3358 37.399L99.4723 34.189L99.9702 34.163L101.077 37.399L101.492 37.5V37.817H100.045V37.5L100.508 37.399L100.318 36.825H99.0211L98.8281 37.399L99.2964 37.5V37.817H97.9258ZM90.0079 34.556C89.3264 34.556 88.9862 35.034 88.9862 35.991C88.9862 36.947 89.3102 37.427 89.9592 37.427C90.2918 37.427 90.5489 37.304 90.7324 37.061C90.914 36.818 91.0067 36.453 91.0067 35.964C91.0058 35.024 90.6741 34.556 90.0079 34.556ZM88.4108 36.032C88.4108 35.739 88.449 35.475 88.5235 35.239C88.5991 35.002 88.7061 34.799 88.8504 34.631C88.9948 34.463 89.1639 34.333 89.3618 34.244C89.5596 34.156 89.7804 34.111 90.0232 34.111C90.265 34.111 90.482 34.154 90.676 34.239C90.8681 34.323 91.0335 34.445 91.1692 34.606C91.303 34.766 91.4053 34.96 91.4741 35.185C91.5439 35.413 91.5793 35.665 91.5793 35.948C91.5793 36.231 91.5401 36.488 91.4579 36.723C91.3795 36.957 91.2686 37.159 91.1214 37.327C90.9771 37.496 90.8022 37.63 90.6005 37.724C90.396 37.82 90.1733 37.867 89.9286 37.867C89.4382 37.867 89.0636 37.71 88.8026 37.392C88.5417 37.077 88.4108 36.623 88.4108 36.032ZM87.691 37.503V37.817H86.1713V37.503L86.6693 37.399V34.582H86.0203L85.8951 35.102H85.5711V34.164H88.2884V35.102H87.9654L87.8411 34.582H87.1912V37.399L87.691 37.503ZM83.5553 34.582V35.833H83.93C84.1727 35.833 84.3629 35.776 84.4996 35.661C84.6353 35.547 84.7051 35.393 84.7051 35.206C84.7051 35.016 84.6449 34.864 84.5293 34.75C84.4127 34.638 84.2626 34.582 84.0791 34.582H83.5553ZM82.609 37.817V37.503L83.0315 37.399V34.582L82.609 34.477V34.19L83.5553 34.164H84.103C84.4557 34.164 84.7309 34.247 84.9307 34.415C85.1276 34.583 85.226 34.812 85.226 35.103C85.226 35.616 85.01 35.954 84.578 36.122C84.6573 36.195 84.7577 36.352 84.8772 36.593L85.271 37.423L85.6246 37.505V37.819H84.8772L84.4537 36.852C84.3371 36.592 84.2358 36.422 84.1517 36.344C84.0676 36.264 83.9424 36.225 83.779 36.225H83.5553V37.401L83.9787 37.505V37.819H82.609V37.817ZM81.8396 34.582H80.7672V35.702H81.9132V36.12H80.7672V37.399H81.9132L82.0126 36.878H82.3386V37.817H79.8191V37.503L80.2425 37.399V34.582L79.8191 34.477V34.19L80.7672 34.164H82.2889V35.052H81.9629L81.8396 34.582ZM77.8272 34.582V35.728H78.2018C78.4341 35.728 78.6167 35.68 78.7505 35.58C78.8833 35.48 78.9483 35.337 78.9483 35.15C78.9483 34.959 78.8958 34.815 78.7897 34.722C78.6845 34.628 78.5459 34.581 78.3758 34.581H77.8272V34.582ZM77.8272 36.12V37.399H78.351C78.8336 37.399 79.0735 37.198 79.0735 36.798C79.0735 36.548 79.0028 36.371 78.8566 36.272C78.7122 36.169 78.4934 36.12 78.2009 36.12H77.8272ZM76.9029 37.817V37.503L77.3282 37.399V34.582L76.9029 34.477V34.19L77.8272 34.164H78.4007C78.7275 34.164 78.9866 34.241 79.1825 34.393C79.3765 34.546 79.4721 34.775 79.4721 35.078C79.4721 35.527 79.2561 35.807 78.825 35.923C79.0841 35.986 79.279 36.09 79.4052 36.236C79.5342 36.383 79.5964 36.562 79.5964 36.774C79.5964 37.471 79.1739 37.819 78.3261 37.819H76.9029V37.817ZM75.1624 34.556C74.4809 34.556 74.1406 35.034 74.1406 35.991C74.1406 36.947 74.4637 37.427 75.1137 37.427C75.4463 37.427 75.7034 37.304 75.8869 37.061C76.0704 36.818 76.1593 36.453 76.1593 35.964C76.1583 35.024 75.8267 34.556 75.1624 34.556ZM73.5653 36.032C73.5653 35.739 73.6025 35.475 73.679 35.239C73.7516 35.002 73.8606 34.799 74.0059 34.631C74.1483 34.463 74.3184 34.333 74.5163 34.244C74.7132 34.156 74.9349 34.111 75.1758 34.111C75.4195 34.111 75.6365 34.154 75.8305 34.239C76.0217 34.323 76.187 34.445 76.3208 34.606C76.4556 34.766 76.5588 34.96 76.6286 35.185C76.6984 35.413 76.7337 35.665 76.7337 35.948C76.7337 36.231 76.6926 36.488 76.6143 36.723C76.533 36.957 76.4231 37.159 76.2759 37.327C76.1316 37.496 75.9567 37.63 75.755 37.724C75.5533 37.82 75.3268 37.867 75.0821 37.867C74.5927 37.867 74.2181 37.71 73.9562 37.392C73.6962 37.077 73.5653 36.623 73.5653 36.032ZM96.0753 37.817V37.464L96.6087 37.346V34.411L96.4405 34.85L95.5697 36.7L95.1205 36.728L94.2517 34.822L94.1121 34.411V37.346L94.6445 37.464V37.817H93.1296V37.464L93.6065 37.346V34.176L93.1296 34.058V33.735L94.3922 33.707L95.4082 36.055L96.4682 33.736L97.6467 33.708V34.06L97.1688 34.178V37.348L97.6467 37.466V37.819H96.0753V37.817ZM71.2274 34.177V35.586H71.6479C71.9222 35.586 72.1335 35.521 72.2883 35.392C72.4412 35.262 72.5187 35.093 72.5187 34.881C72.5187 34.665 72.4537 34.494 72.3208 34.366C72.1918 34.24 72.0216 34.177 71.8171 34.177H71.2274ZM70.1626 37.817V37.464L70.6395 37.346V34.176L70.1626 34.058V33.735L71.2274 33.707H71.8448C72.2415 33.707 72.5511 33.801 72.7738 33.987C72.9966 34.176 73.1074 34.435 73.1074 34.763C73.1074 35.338 72.8646 35.72 72.3791 35.908C72.468 35.99 72.5808 36.166 72.7165 36.436L73.159 37.371L73.5567 37.465V37.818H72.7165L72.2386 36.73C72.1067 36.437 71.9939 36.247 71.9002 36.158C71.8018 36.071 71.6642 36.027 71.4816 36.027H71.2274V37.347L71.7033 37.465V37.818H70.1626V37.817Z" fill="white"/>
</svg>
